<svg xmlns="http://www.w3.org/2000/svg" version="1.1" xmlns:xlink="http://www.w3.org/1999/xlink" xmlns:svgjs="http://svgjs.dev/svgjs" width="72" height="72" viewBox="0 0 2000 1500"><rect width="2000" height="1500" fill="#102e44"></rect><g transform="matrix(0.2915451895043732,0,0,0.2915451895043732,708.4881587061922,250.40485887547788)"><svg viewBox="0 0 144 247" data-background-color="#102e44" preserveAspectRatio="xMidYMid meet" height="3430" width="2000" xmlns="http://www.w3.org/2000/svg" xmlns:xlink="http://www.w3.org/1999/xlink"><g id="tight-bounds" transform="matrix(1,0,0,1,-0.008235674081220168,-0.09999985775695563)"><svg viewBox="0 0 144.01647134816244 247.2" height="247.2" width="144.01647134816244"><g><svg viewBox="0 0 357.63339731285987 613.8671152552647" height="247.2" width="144.01647134816244"><g><rect width="357.63339731285987" height="22.292751110399998" x="0" y="234.54463223446479" fill="#ffffff" opacity="1" stroke-width="0" stroke="transparent" fill-opacity="1" class="rect-o-0" data-fill-palette-color="primary" rx="1%" id="o-0" data-palette-color="#ffffff"></rect></g><g><rect width="357.63339731285987" height="22.292751110399998" x="0" y="286.0163769448648" fill="#ffffff" opacity="1" stroke-width="0" stroke="transparent" fill-opacity="1" class="rect-o-1" data-fill-palette-color="primary" rx="1%" id="o-1" data-palette-color="#ffffff"></rect></g><g transform="matrix(1,0,0,1,0.8896353166986444,366.6671152552648)"><svg viewBox="0 0 355.8541266794626 247.2" height="247.2" width="355.8541266794626"><g><svg viewBox="0 0 355.8541266794626 247.2" height="247.2" width="355.8541266794626"><g><svg viewBox="0 0 355.8541266794626 247.2" height="247.2" width="355.8541266794626"><g transform="matrix(1,0,0,1,0,0)"><svg width="355.8541266794626" viewBox="4.440000057220459 -38.15999984741211 54.93000030517578 38.15999984741211" height="247.2" data-palette-color="#ffffff"><path d="M4.44 0L4.44-38.16 12.23-38.16 12.23 0 4.44 0ZM22.09 0L22.09-38.16 42.21-38.16Q46.6-38.16 49.83-37.21 53.05-36.25 55.17-34.46 57.3-32.67 58.33-30.08 59.37-27.49 59.37-24.24L59.37-24.24Q59.37-21.19 58.35-18.6 57.32-16.02 55.21-14.12 53.1-12.23 49.88-11.17 46.65-10.11 42.26-10.11L42.26-10.11 29.83-10.13 29.83 0 22.09 0ZM29.83-16.82L42.4-16.82Q44.6-16.82 46.25-17.35 47.9-17.87 49.01-18.84 50.12-19.8 50.67-21.18 51.22-22.56 51.22-24.24L51.22-24.24Q51.22-27.64 49.01-29.53 46.8-31.42 42.4-31.42L42.4-31.42 29.83-31.42 29.83-16.82Z" opacity="1" transform="matrix(1,0,0,1,0,0)" fill="#ffffff" class="undefined-text-0" data-fill-palette-color="primary" id="text-0"></path></svg></g></svg></g></svg></g></svg></g><g transform="matrix(1,0,0,1,68.85777351247602,0)"><svg viewBox="0 0 219.91785028790784 176.1866450344648" height="176.1866450344648" width="219.91785028790784"><g><svg xmlns="http://www.w3.org/2000/svg" xmlns:xlink="http://www.w3.org/1999/xlink" version="1.1" x="0" y="0" viewBox="2.1530001163482666 12.180000305175781 95 76.10901641845703" enable-background="new 0 0 100 100" xml:space="preserve" height="176.1866450344648" width="219.91785028790784" class="icon-icon-0" data-fill-palette-color="accent" id="icon-0"><g fill="#b2fcfb" data-fill-palette-color="accent"><circle fill="none" cx="49.651" cy="72.829" r="1.8"></circle><path fill="none" d="M6.159 65.021h86.985V15.996H6.159V65.021zM56.586 46.886l11.51-4.933v-0.062l-11.51-4.932V33.67l14.891 6.825v2.854l-14.891 6.825V46.886zM51.652 28.924h3.133l-6.639 22.49h-3.132-0.001L51.652 28.924zM27.825 43.256v-2.668l14.89-6.918v3.289l-11.26 4.932v0.062l11.26 4.933v3.288L27.825 43.256 27.825 43.256z"></path><path d="M94.318 12.18h-43.88-1.495H5.063c-1.563 0-2.91 1.188-2.91 2.752v54.092 0.188 5.013 0.313c0 1.563 1.347 2.877 2.91 2.877h35.146c-0.041 0.896-0.321 4.753-2.155 6.623-1.445 1.474-3.453 2.854-2.669 3.563 0.19 0.436 1.091 0.688 3.14 0.688 4.521 0 9.416 0 11.208 0 0.453 0 0.707 0 0.707 0 1.791 0 6.688 0 11.207 0 2.334 0 3.15-0.382 3.158-0.953h-0.08v-0.188h-0.082c-0.104-0.771-1.662-1.907-2.84-3.105-1.834-1.87-2.113-5.727-2.154-6.623h34.674c1.564 0 2.83-1.313 2.83-2.877v-0.314-5.012-0.189V14.934C97.15 13.368 95.883 12.18 94.318 12.18zM49.651 74.676c-1.021 0-1.847-0.824-1.847-1.846s0.826-1.848 1.847-1.848c1.02 0 1.847 0.826 1.847 1.848C51.499 73.852 50.671 74.676 49.651 74.676zM93.145 65.021H6.159V15.996h86.985V65.021z" fill="#b2fcfb" data-fill-palette-color="accent"></path><polygon points="42.715,46.886 31.455,41.953 31.455,41.891 42.715,36.959 42.715,33.67 27.825,40.588 27.825,43.256    27.825,43.257 42.715,50.174  " fill="#b2fcfb" data-fill-palette-color="accent"></polygon><polygon points="48.146,51.414 54.785,28.924 51.652,28.924 45.013,51.414 45.014,51.414  " fill="#b2fcfb" data-fill-palette-color="accent"></polygon><polygon points="71.477,40.495 56.586,33.67 56.586,36.959 68.096,41.891 68.096,41.953 56.586,46.886 56.586,50.174    71.477,43.349  " fill="#b2fcfb" data-fill-palette-color="accent"></polygon></g></svg></g></svg></g><g></g></svg></g><defs></defs></svg><rect width="144.01647134816244" height="247.2" fill="none" stroke="none" visibility="hidden"></rect></g></svg></g></svg>